<svg xmlns="http://www.w3.org/2000/svg" width="1200" height="900" viewBox="0 0 1200 900">
  <defs>
    <linearGradient id="g3" x1="0%" y1="0%" x2="0%" y2="100%">
      <stop offset="0%" style="stop-color:#11161D;stop-opacity:1"/>
      <stop offset="40%" style="stop-color:#1C2430;stop-opacity:1"/>
      <stop offset="100%" style="stop-color:#31435A;stop-opacity:1"/>
    </linearGradient>
  </defs>
  <rect width="1200" height="900" fill="url(#g3)"/>
  <!-- Moon -->
  <circle cx="600" cy="250" r="60" fill="#DDD3C7" opacity="0.7"/>
  <!-- Moon reflection path -->
  <ellipse cx="600" cy="350" rx="30" ry="80" fill="#DDD3C7" opacity="0.08"/>
  <ellipse cx="600" cy="450" rx="50" ry="100" fill="#DDD3C7" opacity="0.05"/>
  <!-- Sea waves -->
  <path d="M0 600 Q200 590 400 600 Q600 610 800 600 Q1000 590 1200 600" stroke="#5A7892" stroke-width="0.5" fill="none" opacity="0.3"/>
  <path d="M0 650 Q250 640 500 650 Q750 660 1000 650 Q1100 640 1200 650" stroke="#5A7892" stroke-width="0.4" fill="none" opacity="0.2"/>
  <path d="M0 700 Q300 690 600 700 Q900 710 1200 700" stroke="#5A7892" stroke-width="0.3" fill="none" opacity="0.15"/>
  <!-- Stars -->
  <circle cx="200" cy="100" r="1" fill="#ffffff" opacity="0.5"/>
  <circle cx="400" cy="80" r="0.8" fill="#ffffff" opacity="0.6"/>
  <circle cx="800" cy="120" r="1.2" fill="#ffffff" opacity="0.4"/>
  <circle cx="1000" cy="90" r="0.7" fill="#ffffff" opacity="0.5"/>
  <circle cx="300" cy="180" r="0.9" fill="#ffffff" opacity="0.3"/>
  <circle cx="900" cy="200" r="1" fill="#ffffff" opacity="0.5"/>
</svg>
