<svg xmlns="http://www.w3.org/2000/svg" width="1200" height="900" viewBox="0 0 1200 900">
  <defs>
    <linearGradient id="g2" x1="0%" y1="0%" x2="100%" y2="100%">
      <stop offset="0%" style="stop-color:#1C2430;stop-opacity:1"/>
      <stop offset="60%" style="stop-color:#31435A;stop-opacity:1"/>
      <stop offset="100%" style="stop-color:#B6A9C9;stop-opacity:0.4"/>
    </linearGradient>
  </defs>
  <rect width="1200" height="900" fill="url(#g2)"/>
  <!-- Rain streaks -->
  <line x1="100" y1="50" x2="80" y2="150" stroke="#AFC3D4" stroke-width="0.3" opacity="0.2"/>
  <line x1="300" y1="100" x2="280" y2="200" stroke="#AFC3D4" stroke-width="0.3" opacity="0.2"/>
  <line x1="500" y1="30" x2="480" y2="130" stroke="#AFC3D4" stroke-width="0.3" opacity="0.15"/>
  <line x1="700" y1="80" x2="680" y2="180" stroke="#AFC3D4" stroke-width="0.3" opacity="0.2"/>
  <line x1="900" y1="60" x2="880" y2="160" stroke="#AFC3D4" stroke-width="0.3" opacity="0.15"/>
  <!-- City lights -->
  <rect x="200" y="550" width="4" height="6" fill="#DDD3C7" opacity="0.3"/>
  <rect x="250" y="530" width="4" height="8" fill="#DDD3C7" opacity="0.4"/>
  <rect x="310" y="560" width="4" height="5" fill="#DDD3C7" opacity="0.25"/>
  <rect x="400" y="520" width="4" height="9" fill="#DDD3C7" opacity="0.35"/>
  <rect x="500" y="540" width="4" height="7" fill="#DDD3C7" opacity="0.3"/>
  <rect x="600" y="555" width="4" height="6" fill="#DDD3C7" opacity="0.4"/>
  <rect x="750" y="525" width="4" height="8" fill="#DDD3C7" opacity="0.3"/>
  <rect x="850" y="545" width="4" height="7" fill="#DDD3C7" opacity="0.25"/>
  <rect x="950" y="535" width="4" height="6" fill="#DDD3C7" opacity="0.35"/>
  <!-- Ground -->
  <rect x="0" y="680" width="1200" height="220" fill="#11161D" opacity="0.5"/>
</svg>
